PathFileType	4	(X/Y/Z)	C:/Users/opensim2020/Desktop/walking_exp_matlab/subject06_walking21_straight_03.trc	
DataRate	CameraRate	NumFrames	NumMarkers	Units	OrigDataRate	OrigDataStartFrame	OrigNumFrames	
100.00	100.00	4	44	mm	100.00	1834	110	
Frame#	Time	LFHD			RFHD			LBHD			RBHD			C7			T10			CLAV			STRN			RBAK			LSHO			LUPA			LELB			LFRM			LWRA			LWRB			LFIN			RSHO			RUPA			RELB			RFRM			RWRA			RWRB			RFIN			LASI			RASI			LPSI			RPSI			LTHI			LKNE			LTIB			LANK			LHEE			LTOE			RTHI			RKNE			RTIB			RANK			RHEE			RTOE			*39			*40			*41			*42			*43			
		X1	Y1	Z1	X2	Y2	Z2	X3	Y3	Z3	X4	Y4	Z4	X5	Y5	Z5	X6	Y6	Z6	X7	Y7	Z7	X8	Y8	Z8	X9	Y9	Z9	X10	Y10	Z10	X11	Y11	Z11	X12	Y12	Z12	X13	Y13	Z13	X14	Y14	Z14	X15	Y15	Z15	X16	Y16	Z16	X17	Y17	Z17	X18	Y18	Z18	X19	Y19	Z19	X20	Y20	Z20	X21	Y21	Z21	X22	Y22	Z22	X23	Y23	Z23	X24	Y24	Z24	X25	Y25	Z25	X26	Y26	Z26	X27	Y27	Z27	X28	Y28	Z28	X29	Y29	Z29	X30	Y30	Z30	X31	Y31	Z31	X32	Y32	Z32	X33	Y33	Z33	X34	Y34	Z34	X35	Y35	Z35	X36	Y36	Z36	X37	Y37	Z37	X38	Y38	Z38	X39	Y39	Z39	X40	Y40	Z40	X41	Y41	Z41	X42	Y42	Z42	X43	Y43	Z43	X44	Y44	Z44	

69	0.680	-1102.61072	131.41377	1659.54761	-972.20099	119.22129	1642.19604	-1118.44971	-0.54569	1607.23206	-990.40839	-11.19013	1594.24390	-1067.28784	-7.97839	1446.99255	-1054.72290	-53.27382	1120.59741	-1059.66492	99.50637	1367.26428	-1067.15564	135.06720	1191.87219	-994.72638	-90.08210	1279.56311	-1223.28662	53.39014	1402.53369	-1305.17493	67.26210	1205.67322	-1325.18689	75.97392	1093.98254	-1342.11377	143.95491	959.26385	-1287.80725	230.21552	869.67163	-1333.04150	180.99870	845.58240	-1327.82471	246.90297	784.96582	-901.31104	43.68946	1399.90564	-820.82672	-32.35323	1211.42761	-809.34570	-46.79232	1089.86389	-790.27576	-56.25523	970.04608	-812.49805	-20.86740	820.58728	-780.49835	-78.96581	833.97998	-776.27753	-61.25040	751.01898	-1169.19836	113.49383	957.65973	-950.75500	125.44829	964.07996	-1129.87610	-42.20037	987.12238	-963.19427	-25.61707	984.47211	-1214.70239	27.59964	644.07605	-1187.43115	13.09657	480.25317	-1171.64417	-67.12817	233.45438	-1119.71838	-102.20436	67.66776	-1072.46045	-143.96695	58.09719	-1125.28906	37.19898	34.03944	-885.83069	166.49440	645.82397	-909.52185	217.37047	531.97003	-914.11316	176.56436	269.36935	-958.39038	160.91220	84.35088	-1008.30762	125.91424	59.81298	-940.80945	307.57394	47.89098	-1051.19421	26.62369	1696.02063												 
70	0.690	-1101.80652	145.62440	1657.68042	-971.40826	133.16492	1640.09802	-1118.05920	13.73763	1605.29187	-990.11694	2.68862	1591.97449	-1067.04443	6.28248	1444.99292	-1054.14856	-38.89811	1118.56042	-1059.44043	113.85166	1365.30029	-1067.43323	149.45918	1189.88879	-994.78046	-75.99062	1277.46008	-1223.04797	67.68118	1400.81055	-1305.72815	83.31985	1204.47400	-1326.58594	94.07140	1093.30542	-1341.68433	166.92134	961.06635	-1285.83679	256.40527	875.97998	-1331.39575	209.05185	849.31213	-1325.01611	277.76547	792.10718	-900.99963	57.88233	1397.50549	-821.26569	-19.98053	1209.54626	-809.55682	-35.60146	1088.15405	-790.14136	-47.40203	968.64337	-811.29883	-15.02219	818.34296	-779.99506	-73.10856	833.11389	-775.33185	-57.32380	749.93427	-1169.72168	126.39876	955.75958	-951.33130	140.60255	962.03491	-1128.80823	-28.86117	985.08130	-962.30151	-10.59467	982.23706	-1214.46997	37.44625	642.74799	-1187.48315	20.50121	479.01520	-1171.65540	-63.98187	233.46095	-1119.30786	-101.48074	68.16415	-1071.95203	-143.23854	59.01023	-1125.33838	37.47891	33.93976	-885.97876	180.10677	642.87262	-909.77313	230.98985	528.87115	-914.45831	204.76375	264.77066	-958.35999	202.56554	79.02242	-1008.82928	169.45178	52.90407	-940.80695	351.22580	50.74365	-1050.65234	40.64359	1694.00635												 
71	0.700	-1100.97351	159.87749	1655.64526	-970.60297	147.04849	1637.92297	-1117.69751	28.06411	1603.16772	-989.65863	16.66055	1589.75781	-1066.67834	20.64894	1442.86816	-1053.45386	-24.58398	1116.33643	-1059.19519	128.32704	1363.11743	-1067.67529	163.90135	1187.72205	-994.75366	-61.62359	1275.05713	-1222.73682	82.09527	1398.90894	-1306.37573	99.28268	1203.18872	-1327.70874	111.84817	1092.34412	-1341.52173	189.54649	962.92584	-1283.74304	281.90311	882.41071	-1329.49390	236.44612	853.07758	-1322.11853	307.82120	799.59857	-900.64972	72.18170	1394.96680	-821.41400	-7.09803	1207.51855	-809.75690	-23.93443	1086.41699	-789.94196	-38.27539	967.20099	-810.11249	-8.71797	816.12537	-779.44714	-66.78297	832.24261	-774.16486	-52.94017	748.71527	-1170.18311	139.82382	953.52448	-951.51630	155.59373	959.63470	-1127.78821	-15.32205	982.89935	-961.31671	4.30243	979.82581	-1214.50500	47.37617	641.19684	-1187.47571	28.08896	477.67389	-1171.57471	-60.65950	233.50497	-1118.86841	-100.79083	68.76443	-1071.30969	-142.59868	60.07798	-1125.38293	37.75467	33.74606	-886.07697	192.81180	639.21802	-910.28961	243.86932	525.31177	-914.93915	232.23865	260.85104	-958.44592	243.55675	75.25045	-1009.03973	211.80573	48.03271	-941.18768	393.65729	54.28525	-1050.02576	54.56939	1691.76941												 
72	0.710	-1100.11060	174.10811	1653.54175	-969.73157	161.02870	1635.62244	-1117.24011	42.40933	1600.86646	-989.32599	30.75705	1587.27429	-1066.22876	35.12710	1440.56628	-1052.82727	-10.08791	1113.90857	-1058.86316	142.88278	1360.82922	-1067.80286	178.37839	1185.39966	-994.58734	-47.12991	1272.43945	-1222.29944	96.57559	1396.84631	-1306.91589	114.94230	1201.77539	-1328.60303	129.50331	1091.12817	-1340.83972	211.97275	964.96021	-1281.62451	306.70215	888.91711	-1327.64746	263.23434	857.23932	-1319.18628	337.03955	807.45123	-900.24243	86.60248	1392.36743	-821.78210	5.42051	1205.51575	-809.66901	-12.33369	1084.63147	-789.56744	-28.78201	965.70490	-808.81848	-1.91587	813.95880	-778.80725	-59.94859	831.40198	-772.97504	-47.75001	747.58899	-1170.53503	153.57597	951.16760	-951.66443	170.66316	956.92365	-1126.78552	-1.64411	980.61255	-960.31873	19.22846	977.23071	-1214.11707	57.92015	639.71893	-1187.47278	35.98133	476.33563	-1171.38403	-57.10093	233.62056	-1118.21765	-100.01100	69.51078	-1070.43774	-141.72412	61.34739	-1125.42261	38.03897	33.58548	-886.23407	204.76018	635.01062	-910.66040	256.75516	521.17035	-915.54736	258.93253	257.63406	-958.66425	283.41147	73.11858	-1009.09235	253.75099	44.75070	-941.83496	434.79614	58.76899	-1049.40173	68.68896	1689.47229												 
